<?xml version="1.0" encoding="UTF-8"?>
<svg id="Layer_2" data-name="Layer 2" xmlns="http://www.w3.org/2000/svg" viewBox="0 0 327.21 56.06">
  <defs>
    <style>
      .cls-1 {
        stroke-width: 0px;
      }
    </style>
  </defs>
  <g id="Layer_1-2" data-name="Layer 1">
    <g>
      <path class="cls-1" d="m30.3,55.05l-.59-.94c-.98-1.58-2.16-3.31-3.49-5.14-1.35-1.85-2.81-3.74-4.36-5.6-1.55-1.87-3.18-3.68-4.86-5.38-.59-.6-1.18-1.17-1.77-1.72v18.79H0V1.15h15.23v15.71c1.76-1.89,3.54-3.84,5.31-5.81,2.98-3.31,5.72-6.38,8.24-9.22l.6-.67h18.52l-2.76,3.29c-3.38,4.03-6.85,7.98-10.31,11.73-2.96,3.22-6.11,6.51-9.38,9.8,3.5,3.1,6.91,6.69,10.17,10.7,3.74,4.61,7.39,9.76,10.84,15.32l1.9,3.06h-18.06Z"/>
      <path class="cls-1" d="m70.97,56.06c-3.63,0-7.1-.6-10.33-1.78-3.28-1.2-6.18-3-8.63-5.37-2.45-2.37-4.4-5.34-5.79-8.83-1.38-3.46-2.09-7.5-2.09-12.01s.73-8.57,2.17-12.03c1.44-3.48,3.42-6.45,5.89-8.84,2.47-2.39,5.37-4.21,8.62-5.41,3.21-1.18,6.63-1.78,10.16-1.78s7.1.6,10.33,1.78c3.28,1.2,6.18,3.02,8.63,5.42,2.45,2.39,4.39,5.38,5.79,8.86,1.38,3.46,2.09,7.5,2.09,12.01s-.69,8.54-2.05,12c-1.37,3.49-3.28,6.46-5.68,8.83-2.4,2.38-5.3,4.19-8.61,5.39-3.25,1.18-6.79,1.78-10.51,1.78Zm0-42.19c-1.8,0-3.39.33-4.74.99-1.35.66-2.51,1.58-3.45,2.76-.96,1.21-1.72,2.71-2.24,4.44-.54,1.79-.81,3.82-.81,6.01s.27,4.27.81,6.04c.52,1.72,1.28,3.2,2.24,4.41.94,1.19,2.06,2.07,3.43,2.71,1.36.64,2.96.96,4.76.96s3.36-.33,4.74-.97c1.38-.64,2.51-1.53,3.45-2.71.96-1.21,1.72-2.7,2.24-4.41.54-1.77.81-3.8.81-6.04s-.27-4.29-.81-6.08c-.52-1.74-1.28-3.23-2.24-4.44-.94-1.18-2.07-2.07-3.45-2.71-1.38-.64-2.98-.97-4.74-.97Z"/>
      <polygon class="cls-1" points="188.27 55.05 188.27 1.15 227.62 1.15 227.62 14.58 203.5 14.58 203.5 20.38 223.44 20.38 223.44 33.59 203.5 33.59 203.5 41.62 227.62 41.62 227.62 55.05 188.27 55.05"/>
      <path class="cls-1" d="m260.75,1.15v18.79c-.59-.55-1.18-1.12-1.77-1.72-1.68-1.7-3.31-3.51-4.86-5.38-1.55-1.87-3.01-3.76-4.36-5.6-1.33-1.83-2.51-3.56-3.49-5.14l-.59-.94h-18.06l1.9,3.06c3.46,5.56,7.1,10.71,10.84,15.32,2.54,3.13,5.17,5.99,7.87,8.57-2.69,2.58-5.33,5.44-7.87,8.57-3.74,4.61-7.39,9.76-10.84,15.32l-1.9,3.06h18.06l.59-.94c.98-1.58,2.16-3.31,3.49-5.14,1.35-1.85,2.81-3.74,4.36-5.6,1.55-1.87,3.18-3.68,4.86-5.38.59-.6,1.18-1.17,1.77-1.72v18.79h15.23V1.15h-15.23Z"/>
      <polygon class="cls-1" points="296.93 55.05 296.93 14.73 281.88 14.73 281.88 1.15 327.21 1.15 327.21 14.73 312.16 14.73 312.16 55.05 296.93 55.05"/>
      <path class="cls-1" d="m166.14,1.15v24.94c-.62-.9-1.26-1.82-1.91-2.74-1.97-2.81-3.98-5.57-5.99-8.2-1.99-2.62-3.99-5.12-5.92-7.45-1.95-2.34-3.76-4.35-5.38-5.97l-.59-.59h-11.97v24.9c-.61-.89-1.24-1.79-1.87-2.7-1.97-2.81-3.98-5.57-5.99-8.2-1.99-2.62-3.99-5.12-5.92-7.45-1.95-2.34-3.76-4.35-5.38-5.97l-.59-.59h-11.97v53.9h15.09v-29.12c2.89,3.62,5.67,7.41,8.29,11.32,3.69,5.5,7.18,11.14,10.36,16.79l.57,1.02h12.6v-28.99c2.85,3.58,5.59,7.33,8.19,11.19,3.69,5.5,7.18,11.14,10.36,16.79l.57,1.02h12.6V1.15h-15.16Z"/>
    </g>
  </g>
</svg>